HIERARCHY
ROOT Hips
{
    OFFSET 0.000000 0.000000 0.000000
    CHANNELS 6 Xposition Yposition Zposition Zrotation Xrotation Yrotation
    JOINT Spine
    {
        OFFSET -0.000000 7.675621 0.000000
        CHANNELS 3 Zrotation Xrotation Yrotation
        JOINT Spine1
        {
            OFFSET -0.000000 18.989058 0.000000
            CHANNELS 3 Zrotation Xrotation Yrotation
            JOINT Neck
            {
                OFFSET -0.000000 20.861160 0.000000
                CHANNELS 3 Zrotation Xrotation Yrotation
                JOINT Head
                {
                    OFFSET -0.000000 14.508796 1.872102
                    CHANNELS 3 Zrotation Xrotation Yrotation
                    End Site
                    {
                        OFFSET -0.000000 18.721025 0.000000
                    }
                }
            }
            JOINT LeftShoulder
            {
                OFFSET 3.803890 16.435163 -0.376809
                CHANNELS 3 Zrotation Xrotation Yrotation
                JOINT LeftArm
                {
                    OFFSET 13.491586 0.000000 0.000000
                    CHANNELS 3 Zrotation Xrotation Yrotation
                    JOINT LeftForeArm
                    {
                        OFFSET 26.595486 0.000000 0.000000
                        CHANNELS 3 Zrotation Xrotation Yrotation
                        JOINT LeftHand
                        {
                            OFFSET 27.333027 0.000000 0.000000
                            CHANNELS 3 Zrotation Xrotation Yrotation
                            End Site
                            {
                                OFFSET 14.040770 0.000000 0.000000
                            }
                        }
                    }
                }
            }
            JOINT RightShoulder
            {
                OFFSET -3.655588 16.435163 -0.376809
                CHANNELS 3 Zrotation Xrotation Yrotation
                JOINT RightArm
                {
                    OFFSET -13.491586 0.000000 0.000000
                    CHANNELS 3 Zrotation Xrotation Yrotation
                    JOINT RightForeArm
                    {
                        OFFSET -26.595486 0.000000 0.000000
                        CHANNELS 3 Zrotation Xrotation Yrotation
                        JOINT RightHand
                        {
                            OFFSET -27.333027 0.000000 0.000000
                            CHANNELS 3 Zrotation Xrotation Yrotation
                            End Site
                            {
                                OFFSET -14.040770 0.000000 0.000000
                            }
                        }
                    }
                }
            }
        }
    }
    JOINT LeftUpLeg
    {
        OFFSET 9.360513 0.000000 0.000000
        CHANNELS 3 Zrotation Xrotation Yrotation
        JOINT LeftLeg
        {
            OFFSET -0.000000 -38.119110 0.000000
            CHANNELS 3 Zrotation Xrotation Yrotation
            JOINT LeftFoot
            {
                OFFSET -0.000000 -45.088081 0.000000
                CHANNELS 3 Zrotation Xrotation Yrotation
                JOINT LeftToeBase
                {
                    OFFSET -0.000000 -6.084333 14.040770
                    CHANNELS 3 Zrotation Xrotation Yrotation
                    End Site
                    {
                        OFFSET -0.000000 0.000000 3.744205
                    }
                }
            }
        }
    }
    JOINT RightUpLeg
    {
        OFFSET -9.360513 0.000000 0.000000
        CHANNELS 3 Zrotation Xrotation Yrotation
        JOINT RightLeg
        {
            OFFSET -0.000000 -38.119110 0.000000
            CHANNELS 3 Zrotation Xrotation Yrotation
            JOINT RightFoot
            {
                OFFSET -0.000000 -45.088081 0.000000
                CHANNELS 3 Zrotation Xrotation Yrotation
                JOINT RightToeBase
                {
                    OFFSET -0.000000 -6.084333 14.040770
                    CHANNELS 3 Zrotation Xrotation Yrotation
                    End Site
                    {
                        OFFSET -0.000000 0.000000 3.744205
                    }
                }
            }
        }
    }
}
MOTION
Frames:    7
Frame Time:    0.008333
3.057909    86.207947    -17.521725    0.197220    -0.479873    -4.073640    -2.472656    -10.359879    2.877514    1.629272    4.667659    0.963256    2.868226    5.133741    11.234182    -3.162236    -0.341786    12.508103    5.206036    14.938072    2.976715    -69.430649    40.157845    -18.646841    -0.956777    -16.249712    -18.066492    -14.225730    -16.515942    1.003466    -3.880274    13.538761    -12.837637    61.763645    50.087410    24.766817    -0.569926    -14.548573    23.595291    17.436068    -15.621624    -8.014576    1.383601    3.528626    -5.793860    -2.236978    2.793913    -5.224669    12.689343    -5.550697    14.753750    0.000000    0.000000    0.000000    -4.913683    -0.285538    3.769560    8.777746    8.089105    3.282202    -5.084799    -9.135303    -13.232345    0.000000    0.000000    0.000000    
3.054429    86.208412    -17.524460    0.199813    -0.485337    -4.025427    -2.463061    -10.362929    2.851024    1.588419    4.658985    0.955899    2.933856    5.116465    11.250051    -3.242642    -0.221309    12.548933    5.308780    14.769353    2.831286    -68.866997    39.686260    -18.942629    -1.099090    -15.835974    -17.964962    -14.353415    -16.147182    1.189950    -3.889827    13.445593    -12.763023    61.562668    49.818466    24.776958    -0.499181    -14.487144    23.651794    17.669939    -15.568819    -7.869565    1.389634    3.529287    -5.784495    -2.223553    2.786705    -5.242188    12.944050    -5.430802    14.551642    0.000000    0.000000    0.000000    -4.911810    -0.275933    3.702081    8.768521    8.098639    3.321264    -5.076175    -9.140690    -13.243477    0.000000    0.000000    0.000000    
3.034729    86.209801    -17.523489    0.197823    -0.497219    -4.010770    -2.474149    -10.364532    2.846691    1.568032    4.646483    0.955790    2.995152    5.107564    11.262580    -3.305028    -0.111041    12.583403    5.418446    14.620796    2.705229    -68.090858    39.615082    -19.224207    -1.188829    -15.740116    -18.253868    -14.618112    -16.094135    1.379802    -3.893240    13.356879    -12.693211    61.345173    49.610126    24.799049    -0.507765    -14.391373    23.686939    17.472231    -15.492415    -8.099378    1.410348    3.553094    -5.742332    -2.227680    2.764704    -5.293924    12.918079    -5.424454    14.542130    0.000000    0.000000    0.000000    -4.886157    -0.246000    3.810684    8.761195    8.056645    3.217202    -5.090056    -9.130883    -13.256929    0.000000    0.000000    0.000000    
3.027976    86.209068    -17.533688    0.192589    -0.484853    -3.946531    -2.486069    -10.379903    2.816306    1.587396    4.635799    0.945482    3.015934    5.096681    11.269732    -3.378800    -0.004582    12.606484    5.492762    14.448455    2.544314    -67.404785    39.284576    -19.487570    -1.240106    -15.552293    -18.483650    -14.912975    -15.935279    1.497242    -3.927469    13.267732    -12.642877    61.091221    49.433586    24.847212    -0.530819    -14.350403    23.710476    17.616434    -15.424644    -7.884017    1.421738    3.536139    -5.841804    -2.221656    2.742127    -5.178202    12.908878    -5.427420    14.464401    0.000000    0.000000    0.000000    -4.869780    -0.254509    3.797315    8.759182    8.056149    3.201688    -5.093791    -9.128328    -13.297880    0.000000    0.000000    0.000000    
3.022032    86.210411    -17.539347    0.190685    -0.492864    -3.875118    -2.500176    -10.376746    2.788104    1.600045    4.617574    0.936223    3.049055    5.092813    11.275552    -3.459822    0.109367    12.631845    5.594602    14.271871    2.367623    -66.695511    38.709076    -19.764721    -1.462970    -15.261298    -18.793879    -15.151603    -15.707712    1.660986    -3.956349    13.182961    -12.587851    60.885014    49.150520    24.857262    -0.523821    -14.212000    23.712893    17.520687    -15.292338    -7.954484    1.429621    3.535020    -5.868176    -2.217010    2.736081    -5.181412    12.901108    -5.423498    14.422262    0.000000    0.000000    0.000000    -4.861097    -0.234583    3.775843    8.760382    8.045794    3.148158    -5.089765    -9.128372    -13.288244    0.000000    0.000000    0.000000    
3.014087    86.211327    -17.546474    0.188404    -0.497038    -3.802734    -2.521369    -10.386077    2.763404    1.635485    4.611153    0.927369    3.040026    5.107790    11.283233    -3.510729    0.181967    12.647198    5.686848    14.059192    2.186756    -66.027802    38.248428    -19.990936    -1.460065    -15.111289    -19.187307    -15.414476    -15.588853    1.834323    -4.004613    13.101180    -12.532531    60.684299    48.927727    24.875832    -0.617417    -14.075003    23.672304    17.482143    -15.129326    -7.918984    1.435980    3.526537    -5.893551    -2.204434    2.733961    -5.199931    12.896905    -5.416676    14.394937    0.000000    0.000000    0.000000    -4.848658    -0.238158    3.632874    8.743775    8.090840    3.261693    -5.109503    -9.132841    -13.334377    0.000000    0.000000    0.000000    
3.020141    86.214027    -17.557331    0.198050    -0.507228    -3.684067    -2.521306    -10.374655    2.715342    1.624590    4.591120    0.911975    3.061070    5.123455    11.291714    -3.601348    0.259179    12.674038    5.796766    13.836195    2.007242    -65.355553    37.728409    -20.219097    -1.436429    -14.970276    -19.672369    -15.534407    -15.476357    2.017753    -4.046823    13.013860    -12.480099    60.481148    48.699703    24.879642    -0.669126    -13.920949    23.654020    17.213923    -14.955246    -7.973082    1.407784    3.506682    -5.981183    -2.166419    2.747779    -5.201554    12.877105    -5.397869    14.369294    0.000000    0.000000    0.000000    -4.872152    -0.207007    3.648600    8.775713    8.058789    3.153128    -5.120359    -9.123695    -13.350611    0.000000    0.000000    0.000000    
